# xmcd
#
# Track frame offsets:
#	150
#	25022
#	47996
#	61943
#	80682
#	101807
#	118123
#	136763
#	166433
#	186233
#
# Disc length: 2772 seconds
# Revision: 0
# Processed by: cddbd v1.5.2PL0 Copyright (c) Steve Scherf et al.
# Submitted via: dBpowerAMP V12.0
#
DISCID=870ad20a
DTITLE=Reed Turner - Ghosts in the Attic
DYEAR=2013
DGENRE=Americana
TTITLE0=Modern Man
TTITLE1=Ghost in the Attic
TTITLE2=Killed That Girl ('Cause She Was Killin' Me)
TTITLE3=Room for Doubt
TTITLE4=Long Gone
TTITLE5=Locking Doors
TTITLE6=Familiar Sound
TTITLE7=The Fire
TTITLE8=Long Way to Go
TTITLE9=The Sculptor and the Stone
EXTD=
EXTT0=
EXTT1=
EXTT2=
EXTT3=
EXTT4=
EXTT5=
EXTT6=
EXTT7=
EXTT8=
EXTT9=
PLAYORDER=
